<svg id="Layer_1" data-name="Layer 1" xmlns="http://www.w3.org/2000/svg" viewBox="0 0 1000 1000"><defs><style>.cls-1{fill:#f58345;}</style></defs><title>prospera_logo_color</title><path class="cls-1" d="M940.7,782.4l-1.4-1.5-168.2-175,118.8-45.4.5-.3c3.1-1.2,6-3.7,7.2-8.8,1.9-8-2.8-13-6.2-16.6l-.7-.7L487,114.4a17.5,17.5,0,0,0-14.9-5.7,14.6,14.6,0,0,0-4.1,1.1L315.9,168a16,16,0,0,0-8.9,8.6L87,672.3l-.3.8h-.1c0,.2-.1.3-.2.5v.2h0l-.3.6a1.7,1.7,0,0,1-.2.5c-.1.1-.1.3-.2.5s-.1.4-.2.6-.1.1-.1.2a.3.3,0,0,1-.1.2l-.3,1.1v.4a2.9,2.9,0,0,0-.2.9c0,.1-.1.2-.1.3v.2a6346711248981,6346711248981,0,0,1-.2,1.4c0,.4-.1.7-.1,1h0v.4c0,.3.1.7.1,1.1v.2h0l.3,1.5c0,.1.1.3.1.4h0l.4,1,.3.8.4.9v.2l.2.3a12.9,12.9,0,0,0,.9,1.6l.8,1.1.4.4.5.6.4.5.6.5.5.4a1.8,1.8,0,0,0,.7.5.1.1,0,0,0,.1.1l.6.4h.3l.5.3.7.3.6.2.4.2h.4l.6.2h.3l1,.2h5l2.1-.2,19.2-2.4,20-2.5c11.1-1.3,20.4-2.4,29.4-3.3a30.2,30.2,0,0,0,6.1-1.5l74.5-28.5L137.2,918.8h0l-.2.4-.2.3c0,.2-.1.3-.2.5l-.3.6v.2l-.2.4c0,.2-.1.3-.2.5h0a5.4,5.4,0,0,0-.5,1.1h0a.8.8,0,0,0-.2.5l-.3.7h0v.2c0,.1-.1.2-.1.3l-.3,1.1v.2h0a7.4,7.4,0,0,0-.3,1.7.7.7,0,0,0-.1.5,2.8,2.8,0,0,1-.1.9v1.7a1.3,1.3,0,0,0,.1.6c0,.4.1.7.1,1.1h0a.4.4,0,0,1,.1.3c0,.1.1.2.1.3a7.5,7.5,0,0,0,.5,1.6.3.3,0,0,1,.1.2l.6,1.4c.1,0,.1,0,.1.1a7.5,7.5,0,0,0,.7,1.2l.9,1.3.2.3c.1.1.1.1.1.2l.7.7.3.4.8.8.3.2a.1.1,0,0,0,.1.1l.5.4.4.3.4.3.5.3.6.4.7.3.5.2h.1l.6.3.6.2h.7l1.6.3h7.2l20.1-2.5,13.6-1.6,33.8-4a29.6,29.6,0,0,0,6.2-1.5l152.5-58.3h0c6.1-2.3,10.7-7,13.8-14.3,12.4-28.8,38.1-87.9,91.1-209.2,48.2,50.7,153.3,161.2,202.9,213.7a9.3,9.3,0,0,0,1.4,1.4c.2.2.3.4.5.5l1,1,.6.5,1.1.9h.2l.3.2a9.1,9.1,0,0,0,1.6,1.1c0,.1.1.1.2.2h.1l1.4.9h.1l.3.2h.2l1.2.6.5.2a.1.1,0,0,0,.1.1l1.3.5.5.2,1.6.5h.7l1.3.3h8.1l33.8-4.2c11-1.4,22.5-2.7,33.7-4.2a23.7,23.7,0,0,0,6.6-1.4L939,808.7h.2c3.6-1.3,7-4.1,8.1-10.2C948.9,790.4,944,785.6,940.7,782.4ZM883.5,541l.6.7c3.2,3.4,4.4,4.9,3.8,7.4s-.5,1.7-1.7,2.1h-1.1l-1.7.2h-.9l-19.6,2.4-3,.3-16.7,2-12.3,1.6-16.6,2.2h-4.6l-.9-.2h-.2a16.1,16.1,0,0,1-2.9-.9h0l-.7-.4a.5.5,0,0,1-.4-.2l-.7-.3-.8-.5-.3-.2-1.1-.8h-.2a.1.1,0,0,0-.1-.1l-.8-.7-.4-.3h0a6,6,0,0,1-.8-.8l-.3-.2H799c-.2-.1-.3-.3-.4-.4l-.7-.7h-.1l-222-233.2-65.4-68.8-1.2-1.1h-.1l-.3-.3h-.3l-.7-.5-.4-.2-.3-.2H507l-.6-.3h-.3l-.4-.2h-.6l-.5-.2h-6.4l-.6.2-.5.2-1,.5h-.2l-1.1.7-1,.9h-.1l-.9,1v.2l-.5.6v.2l-.3.5a9.3,9.3,0,0,0-.5,1h-.1L459,327.7l-28.2,64.6h0L335.6,610.1c-.3.6-.5,1.1-.8,1.6s-.1.2-.1.3c-2,3.8-4.4,6.1-7.5,7.3h-.1l-1.5.5h-.2l-1.8.3h0l-29.5,3.4-19.7,2.4-19.5,2.5h-4.1c-.1,0-.2,0-.2-.1h-1.3l-.2-.2h-.2c-.1-.1-.2-.1-.2-.2l-.2-.2h0l-.2-.2h0l-.3-.5h-.1a4.3,4.3,0,0,1-.4-.7h0v-.2l-.2-.3V625a.4.4,0,0,0-.1-.3h0a.1.1,0,0,0-.1-.1h0v-1.2c0-.1.1-.2.1-.3v-.2h0v-.5h.1c0-.1.1-.3.1-.4a.3.3,0,0,1,.1-.2h0c0-.1.1-.2.1-.3s.1-.2.2-.4h0c0-.1.1-.3.1-.4l.2-.5a.1.1,0,0,0,.1-.1c.1-.1.1-.3.2-.4s0-.1.1-.2.1-.2.1-.4l.3-.6,81.6-183.8,45-101.4,5.3-12.1,8.6-19.3.9-1.9L417.9,237l50.9-114.7h0l.4-.7.2-.3h0V121h.1l.2-.2a.3.3,0,0,1,.1-.2l.2-.3h.1l.4-.4h.2c0-.1.1-.1.2-.2h1l1.3-.4a7.6,7.6,0,0,1,6.5,2.8ZM384.9,858.5c-2,4.7-4.6,7.5-8.2,8.8l-1.5.5H375l-1.1.3h-.8l-26.9,3.1-6.9.8-13.2,1.7-20.5,2.5h-5.2a.1.1,0,0,1-.1-.1h-.4l-.8-.4h-.2c-.1-.1-.2-.1-.2-.2h-.2c-.1-.1-.2-.2-.2-.3h-.1a.3.3,0,0,1-.1-.2c-.1-.1-.2-.2-.2-.3h-.2c0-.1,0-.2-.1-.2s-.1-.2-.2-.4a2.5,2.5,0,0,1-.4-.7.4.4,0,0,1-.1-.3.8.8,0,0,1-.2-.4c0-.1-.1-.1-.1-.2h0v-.2h0v-.3h0v-.8c0-.1.1-.2.1-.3a.8.8,0,0,1,.1-.4.6.6,0,0,1,.1-.4c0-.2.1-.3.2-.5v-.3h0l1-2.2h0c.2-.5.5-1,.7-1.4s0-.2.1-.2v-.4L518.5,370a2,2,0,0,1,.4-.8V369c.1-.2.1-.3.2-.4h.1v-.2l.2-.2.2-.3h.1l.4-.3a.1.1,0,0,1,.1-.1l.2-.2.3-.2h1l.4-.2h1.5a7.5,7.5,0,0,1,4.9,2h.1l.7.7L734,581.8l11.3,11.8h0l13.3,13.8h0L932,787.8c.6.5,1.1,1.1,1.7,1.7,3.1,3.1,4.3,4.5,3.8,7.1s-.6,2.2-2,2.7h-.2l-3.1.6h-.9l-33.7,4.2-33.8,4.1h-6.2l-1-.4h-.1c-.1,0-.1,0-.1-.1l-.8-.3-.5-.2-.7-.3-.3-.2-.9-.5-.3-.2-1.1-.8h-.3l-.2-.2-.6-.5h-.1l-.3-.2-.7-.7-.3-.2h-.1a.1.1,0,0,0-.1-.1l-.8-.9-.3-.3c-25.3-26.8-65.5-69.2-108.2-114.1L674.7,619l-1.1-1.1-2.3-2.4-.8-.8-3.6-3.9-14.7-15.3-92.4-97a.1.1,0,0,0-.1-.1l-.6-.6-.5-.4-.2-.2h-.3l-.3-.3-.4-.3h0l-.4-.2h-.1l-.3-.2h-.2l-.5-.3c-.1,0-.1,0-.1-.1l-.6-.2h-.1l-.7-.3-.5-.2h-.3a7,7,0,0,0-1.2-.3h-3l-1.1.2h-.1c0,.1-.1.1-.2.1h-1l-.4.2-1,.5h-.2l-1.1.7-1,.9h-.1l-.9,1-.2.3-.3.4-.2.3-.3.5-.6,1.1a4.2,4.2,0,0,1-.4,1l-1,2.3-1.2,2.8-.6,1.4-12.3,28L479,642.3h0C424,768.3,397.6,829.1,384.9,858.5Z"/><path class="cls-1" d="M713.4,885.7h-8.1l-1.6-.2-1-.2-1.8-.4-1-.2-2.1-.7-.8-.3-1.7-.7-.8-.3h-.2l-1.4-.7-.6-.3-.3-.2-1.6-1h-.2l-.5-.3-1.9-1.4-.5-.4h-.1l-1.3-1-.9-.8-1.1-1a2.3,2.3,0,0,1-.7-.7l-1.7-1.6-1.8-1.9a414,414,0,0,1-314.9,21l-42.2,16.2,1.2.5a446,446,0,0,0,345.9,0,451.9,451.9,0,0,0,47.8-23.7l-4,.5Z"/><path class="cls-1" d="M190,777.7h0a410.1,410.1,0,0,1-54.7-75.9l-10.8,1.3-1,.2-18.9,2.3-1.5.2a445.2,445.2,0,0,0,73.6,101.9Z"/><path class="cls-1" d="M82.4,499.4c0-228.5,185.9-414.3,414.3-414.3S911.1,270.9,911.1,499.4a410.8,410.8,0,0,1-46.6,190.7l22,22.9a447.2,447.2,0,0,0,19.7-40.6A444.5,444.5,0,0,0,87.3,326.5a445.7,445.7,0,0,0-4.8,333.9l17.8-40.2A415.4,415.4,0,0,1,82.4,499.4Z"/></svg>