<svg id="Layer_1" data-name="Layer 1" xmlns="http://www.w3.org/2000/svg" viewBox="0 0 1000 1000"><defs><style>.cls-1{fill:#00112b;}</style></defs><title>prospera_logo_dark</title><path class="cls-1" d="M941.1,782l-1.5-1.5-168.2-175,118.9-45.4.4-.2c3.1-1.3,6-3.8,7.3-8.9,1.8-8-2.9-13-6.3-16.6l-.6-.7L487.4,114c-4.2-4.3-9.6-6.4-14.9-5.7a14.4,14.4,0,0,0-4.2,1.1L316.2,167.6a16.3,16.3,0,0,0-8.9,8.6L87.4,671.9l-.4.8h0c-.1.2-.2.3-.2.5s-.1.1-.1.2h-.1a1.4,1.4,0,0,0-.2.6.8.8,0,0,0-.2.5c-.1.2-.2.3-.2.5l-.3.6c0,.1,0,.1-.1.2v.3a4.2,4.2,0,0,0-.4,1v.2a.3.3,0,0,0-.1.2c-.1.3-.1.6-.2.9a.4.4,0,0,1-.1.3v.2c0,.2-.1.5-.1.7s-.1.5-.1.8v.9h0v1.5c0,.1,0,.1.1.2h0a8.9,8.9,0,0,0,.2,1.5c.1.1.1.3.2.4h0l.3,1,.3.8.4.9v.2l.2.3a8.6,8.6,0,0,0,1,1.6l.7,1.1c.2.1.3.3.4.4l.5.6.5.5.5.5.5.4.7.5h.2a1,1,0,0,0,.5.4h.4l.5.3.6.3.6.2.4.2h.5l.5.2h.4l.9.2h5l2.1-.2,19.2-2.4,20-2.5,29.4-3.3a28.7,28.7,0,0,0,6.1-1.5l74.6-28.5L137.6,918.4a.1.1,0,0,0-.1.1l-.2.4v.3c-.1.2-.2.3-.2.5l-.3.6a.3.3,0,0,0-.1.2l-.2.4-.3.5h0l-.5,1.2h0c-.1.1-.1.3-.2.5l-.3.7h0v.2a.4.4,0,0,0-.1.3,4.9,4.9,0,0,0-.4,1.1v.2h0a15.7,15.7,0,0,0-.3,1.6,1.1,1.1,0,0,1-.1.5v2.5h0c0,.2.1.4.1.6a4.3,4.3,0,0,0,.2,1.1h0v.3a.4.4,0,0,1,.1.3c.2.6.3,1.1.5,1.6s.1.1.1.2a9.1,9.1,0,0,0,.7,1.4h0a7.5,7.5,0,0,1,.7,1.2l.9,1.3.3.3c0,.1,0,.1.1.2l.6.7c.1.1.2.3.4.4l.7.8.3.2.2.2.4.3.4.3.4.3.5.3.7.4.7.3.5.2h0l.6.3.7.2h.6l1.7.3h7.1l20.1-2.4,13.7-1.7,33.8-4a20.2,20.2,0,0,0,6.1-1.5l152.5-58.3h0c6.2-2.3,10.7-7,13.9-14.3,12.4-28.8,38-87.9,91-209.2C533.7,703.5,638.9,814,688.4,866.5l1.4,1.4.5.5,1.1,1,.6.5,1.1.9h.1l.3.2,1.6,1.1.2.2h.1l1.4.9h.1l.3.2h.2l1.2.6.5.2h.1l1.3.5.5.2,1.7.5h.5a.1.1,0,0,0,.1.1l1.4.3h8l33.8-4.2c11.1-1.3,22.5-2.7,33.7-4.2a24.3,24.3,0,0,0,6.7-1.4l152.5-58.3h.1c3.6-1.3,7-4.1,8.2-10.2C949.2,790,944.3,785.2,941.1,782ZM883.8,540.6l.6.7c3.3,3.4,4.4,4.9,3.8,7.4a2.3,2.3,0,0,1-1.6,2.1h-1.2l-1.7.2h-.9l-19.5,2.3-3.1.3-16.6,2-12.3,1.6c-6.1.7-11.6,1.5-16.7,2.2H810l-.9-.2h-.2a13.1,13.1,0,0,1-2.8-.9H806l-.7-.3-.4-.2-.7-.4-.7-.5-.4-.2-1.1-.8h-.3l-.8-.7-.3-.2h-.1l-.8-.7-.3-.3h-.1c-.1-.1-.2-.3-.4-.4l-.7-.7a.1.1,0,0,0-.1-.1L576.2,319.7l-65.5-68.8-1.2-1.1h0l-.4-.2H509l-.2-.2-.7-.4-.3-.3-.3-.2h-.1l-.6-.3h-.3l-.5-.3h-.5l-.5-.2h-.5a.1.1,0,0,0-.1-.1H499a.1.1,0,0,1-.1.1h-.4l-.6.2-.5.2-1,.5h-.2l-1.1.7-1,.9H494l-.9,1v.2a2.1,2.1,0,0,0-.4.6l-.2.2-.3.5a5.4,5.4,0,0,0-.5,1.1h0l-32.2,73.6-28.3,64.6h0L335.9,609.7c-.2.6-.5,1.1-.7,1.6l-.2.3c-2,3.8-4.3,6.1-7.5,7.3h0l-1.6.5h-.2l-1.7.3h-.1l-29.4,3.4-19.7,2.5L255.3,628h-.2l-1.5.2h-4.1l-.2-.2h-.1l-.2-.2-.2-.2h0v-.2h-.1l-.3-.5h0l-.5-.8h-.1c0-.2-.1-.3-.1-.4v-.3c-.1-.1-.1-.1-.1-.2h-.1v-.2a.3.3,0,0,1-.1-.2v-1.1h.1V622c0-.1.1-.2.1-.3h0c0-.1.1-.3.1-.4a.3.3,0,0,0,.1-.2h0l.2-.3a.4.4,0,0,1,.1-.3h0c.1-.1.1-.2.2-.4l.2-.5h0a.8.8,0,0,0,.2-.4c0-.1.1-.1.1-.2s.1-.2.2-.4l.2-.6,81.6-183.8,45-101.4,5.4-12.1,8.6-19.3.8-1.9,27.7-62.5,50.9-114.7h.1a2.5,2.5,0,0,1,.4-.7v-.3h.1v-.2h0l.2-.2c.1-.1.1-.2.2-.2l.2-.3h0c.1-.1.3-.2.4-.4h.2l.2-.2h1.1l1.3-.4a8.3,8.3,0,0,1,6.5,2.8ZM385.3,858.1c-2.1,4.7-4.6,7.5-8.3,8.8l-1.5.5c-.1,0-.2,0-.2.1l-1,.2h-.8c-9.6,1-19,2.2-27,3.1l-6.9.9-13.1,1.6-20.6,2.5h-5.6l-.9-.4h-.2c-.1,0-.1-.1-.2-.2h-.2l-.2-.2h0c-.1,0-.1-.1-.2-.2s-.1-.2-.2-.3h-.1l-.2-.2-.2-.3c-.1-.3-.3-.5-.4-.8s-.1-.2-.1-.3-.1-.3-.2-.4v-.2h0a.4.4,0,0,1-.1-.3h0v-.3h0v-1.1c0-.1.1-.2.1-.4s.1-.3.1-.4l.2-.5v-.3h0l1-2.2h0c.3-.5.5-1,.7-1.4s.1-.1.1-.2v-.2c0-.1,0-.1.1-.2L518.8,369.6a5.9,5.9,0,0,1,.4-.8v-.2a.8.8,0,0,0,.2-.4h.1V368l.2-.2.3-.3h0c.1-.2.3-.3.4-.4h.2a.1.1,0,0,1,.1-.1l.3-.3h.3a.1.1,0,0,0,.1-.1h.7l.4-.2h1.5a7.5,7.5,0,0,1,4.8,2h.2l.6.7L734.3,581.4l11.4,11.8h0L759,607h0L932.4,787.4l1.6,1.7c3.2,3.1,4.3,4.5,3.8,7.1s-.5,2.2-2,2.7h-.2l-3,.6h-1l-33.7,4.2c-11.1,1.3-22.5,2.7-33.7,4.2H858l-1.1-.4h-.2l-.7-.3-.5-.3-.7-.3-.4-.2-.9-.5-.3-.2-1.1-.8h-.3l-.2-.2c-.2-.1-.3-.3-.5-.5h-.2l-.2-.2-.8-.7-.2-.2h-.2c0-.1,0-.1-.1-.1l-.8-.9-.3-.3C823,774.4,782.8,732,740.1,687.1L675,618.6l-1.1-1.1-2.3-2.4-.7-.8-3.7-3.9-14.6-15.3c-40.6-42.7-77.1-80.9-92.5-97,0-.1,0-.1-.1-.1l-.5-.6-.5-.4-.3-.2h-.3l-.3-.3-.4-.3h0l-.4-.2h-.1l-.3-.2h-.1l-.6-.3h-.1l-.6-.2h0l-.7-.3H554l-1.3-.3h-3l-1.1.2h-1.2l-.5.2-1,.5h-.2l-1.1.7-1,.9h-.1l-.8,1c-.1.1-.2.2-.2.3l-.4.4c0,.1-.1.2-.1.3l-.3.5-.6,1.1a4.2,4.2,0,0,0-.4,1l-1.1,2.3-1.2,2.8-.6,1.4-12.2,28c-12,27.4-28.5,65-46.2,105.6h-.1C424.3,767.9,397.9,828.7,385.3,858.1Z"/><path class="cls-1" d="M713.7,885.3h-8.1l-1.6-.2-1-.2-1.7-.4-1.1-.2-2.1-.7-.8-.3-1.7-.7-.8-.3h-.2l-1.3-.7-.6-.3-.4-.2-1.6-1h-.2l-.5-.3-1.9-1.4-.5-.3c0-.1,0-.1-.1-.1l-1.3-1.1-.9-.8-1.1-1-.7-.6-1.6-1.7c-.6-.6-1.2-1.3-1.9-1.9a414,414,0,0,1-314.9,21L323,908l1.1.5a446,446,0,0,0,345.9,0,451.9,451.9,0,0,0,47.8-23.7l-3.9.5Z"/><path class="cls-1" d="M190.3,777.3h0a419.5,419.5,0,0,1-54.7-75.9l-10.7,1.3-1.1.2-18.9,2.3-1.5.2A445.2,445.2,0,0,0,177,807.3Z"/><path class="cls-1" d="M82.7,499c0-228.4,185.9-414.3,414.4-414.3S911.4,270.6,911.4,499a412.6,412.6,0,0,1-46.5,190.8l21.9,22.8A422.2,422.2,0,0,0,906.5,672,444.5,444.5,0,1,0,52.7,499,440.3,440.3,0,0,0,82.8,660l17.9-40.2A412,412,0,0,1,82.7,499Z"/></svg>