<svg id="Layer_1" data-name="Layer 1" xmlns="http://www.w3.org/2000/svg" viewBox="0 0 1000 269.2"><defs><style>.cls-1{fill:#fff;}</style></defs><title>prospera_logo_text_light</title><path class="cls-1" d="M87.7,96.2a47.5,47.5,0,0,1,20.2,4,29.3,29.3,0,0,1,12.9,11.4c3.1,5,4.6,11,4.6,18.1a44.7,44.7,0,0,1-1.9,12.6,32.9,32.9,0,0,1-6.2,11.3,31.2,31.2,0,0,1-11.2,8,43.4,43.4,0,0,1-16.7,2.9h-16v39.8H58.9V96.2Zm1.5,54.4a23.2,23.2,0,0,0,10.6-2.1,16.7,16.7,0,0,0,6.6-5.3,21,21,0,0,0,3.5-6.8,22.2,22.2,0,0,0,1-6.4,23.8,23.8,0,0,0-1-6.8,17,17,0,0,0-3.6-6.4,17.7,17.7,0,0,0-6.4-4.8,23.4,23.4,0,0,0-9.8-1.9H73.4v40.5Z"/><path class="cls-1" d="M169,96.2a52.1,52.1,0,0,1,15.2,2.2,36.8,36.8,0,0,1,12.1,6.4,32.2,32.2,0,0,1,8.1,10.5,33.9,33.9,0,0,1,2.9,14.4,41.4,41.4,0,0,1-1.9,12.6,29.1,29.1,0,0,1-6.2,11.1,32.2,32.2,0,0,1-11.3,8.1q-6.9,3-17.1,3h-16v39.8H140.3V96.2Zm1.5,54.4a25.6,25.6,0,0,0,10.7-1.9,17.6,17.6,0,0,0,6.7-5,19.3,19.3,0,0,0,3.4-6.7,24,24,0,0,0,1.1-6.7,21.2,21.2,0,0,0-1.2-6.8,18.2,18.2,0,0,0-3.6-6.5,17.9,17.9,0,0,0-6.4-4.9,21.3,21.3,0,0,0-9.6-2H154.8v40.5Zm17.8,8.3,28.3,45.4H199.8l-28.7-45Z"/><path class="cls-1" d="M224.9,151.8a50.5,50.5,0,0,1,4.1-20.1,52.9,52.9,0,0,1,11.3-16.8A53.6,53.6,0,0,1,257,103.4a51.4,51.4,0,0,1,40.7,0,53.6,53.6,0,0,1,16.7,11.5,55.2,55.2,0,0,1,11.5,16.8,50.5,50.5,0,0,1,4.1,20.1,52.1,52.1,0,0,1-4.1,20.5A53.6,53.6,0,0,1,314.4,189a52.7,52.7,0,0,1-16.7,11.2,52.6,52.6,0,0,1-57.4-11A49.9,49.9,0,0,1,229,172.6,52.9,52.9,0,0,1,224.9,151.8Zm14.2.2a38,38,0,0,0,3,15.1,40.3,40.3,0,0,0,8.3,12.4,36.8,36.8,0,0,0,12.2,8.5,37.7,37.7,0,0,0,15.1,3.1,37.1,37.1,0,0,0,14.9-3.1,34.5,34.5,0,0,0,12.1-8.5,41.6,41.6,0,0,0,8.1-12.4,38.7,38.7,0,0,0,3-15.3,40.2,40.2,0,0,0-11.2-27.9,38.5,38.5,0,0,0-12.3-8.4,35.5,35.5,0,0,0-14.9-3.1,38.1,38.1,0,0,0-15.1,3.1,40.3,40.3,0,0,0-12.2,8.6,37.9,37.9,0,0,0-8.1,12.6A40.8,40.8,0,0,0,239.1,152Zm77.4-88.3L286.8,95.1H273l19.4-31.4Z"/><path class="cls-1" d="M405.5,115.5a82.6,82.6,0,0,0-12.1-4.9,42.4,42.4,0,0,0-12.9-2.1c-5.8,0-10.4,1.3-13.8,4a12.9,12.9,0,0,0-5.2,10.8,12.2,12.2,0,0,0,3.3,8.6,29,29,0,0,0,8.7,6c3.6,1.7,7.3,3.3,11.2,4.8s6.7,2.8,10,4.4a33.6,33.6,0,0,1,8.9,5.9,28.2,28.2,0,0,1,6.3,8.8,33.4,33.4,0,0,1,2.3,13.1,29,29,0,0,1-4.3,15.5,29.6,29.6,0,0,1-12.1,11.1,42.5,42.5,0,0,1-18.9,4,55.9,55.9,0,0,1-13.7-1.7,70.6,70.6,0,0,1-12-4.2,79.7,79.7,0,0,1-9.8-5.5l6.4-11.3a57.2,57.2,0,0,0,8.2,4.8,54.3,54.3,0,0,0,9.7,3.8,38.7,38.7,0,0,0,9.9,1.4,27.8,27.8,0,0,0,10.1-1.9,19.4,19.4,0,0,0,8.3-5.7,16,16,0,0,0,3.2-10.3,13.9,13.9,0,0,0-2.9-9.2,23.1,23.1,0,0,0-7.7-6.3,77.9,77.9,0,0,0-10.1-4.7c-3.4-1.3-6.9-2.7-10.3-4.3a45.6,45.6,0,0,1-9.8-5.7,25.9,25.9,0,0,1-7.1-8.3,24.1,24.1,0,0,1-2.7-11.9,27.3,27.3,0,0,1,4.1-14.9,28.2,28.2,0,0,1,11.3-10,38.9,38.9,0,0,1,16.4-4,61.2,61.2,0,0,1,18.5,2.6,65.3,65.3,0,0,1,14.1,6.3Z"/><path class="cls-1" d="M457.9,96.2a47.5,47.5,0,0,1,20.2,4A29.3,29.3,0,0,1,491,111.6c3.1,5,4.6,11,4.6,18.1a41.5,41.5,0,0,1-2,12.6,31.3,31.3,0,0,1-6.2,11.3,30,30,0,0,1-11.1,8,43.8,43.8,0,0,1-16.7,2.9h-16v39.8H429.1V96.2Zm1.5,54.4a23.5,23.5,0,0,0,10.6-2.1,16.7,16.7,0,0,0,6.6-5.3,20.7,20.7,0,0,0,3.4-6.8,22.6,22.6,0,0,0,1.1-6.4,24.1,24.1,0,0,0-1.1-6.8,16.8,16.8,0,0,0-3.5-6.4,18.6,18.6,0,0,0-6.4-4.8,23.4,23.4,0,0,0-9.8-1.9H443.6v40.5Z"/><path class="cls-1" d="M510.5,96.2h70.3v13.9H525V143h49.8v13.9H525v33.5h57.9v13.9H510.5Z"/><path class="cls-1" d="M629.2,96.2a52.7,52.7,0,0,1,15.2,2.2,37.8,37.8,0,0,1,12.1,6.4,30.6,30.6,0,0,1,8,10.5,32.5,32.5,0,0,1,2.9,14.4,44.6,44.6,0,0,1-1.8,12.6,30.5,30.5,0,0,1-6.2,11.1,33.1,33.1,0,0,1-11.3,8.1q-6.9,3-17.1,3H615v39.8H600.5V96.2Zm1.5,54.4a25.9,25.9,0,0,0,10.7-1.9,18,18,0,0,0,6.6-5,19.6,19.6,0,0,0,3.5-6.7,27.9,27.9,0,0,0,1-6.7,24.1,24.1,0,0,0-1.1-6.8,21.9,21.9,0,0,0-3.6-6.5,19.8,19.8,0,0,0-6.4-4.9,22.1,22.1,0,0,0-9.7-2H615v40.5Zm17.8,8.3,28.2,45.4H660l-28.7-45Z"/><path class="cls-1" d="M680.7,204.3,728,91.8h.9l47,112.5H759.4l-35.3-89.8,10.3-6.8-39.5,96.6Zm27.7-41h40.2l4.8,12.6H704.2Z"/><path class="cls-1" d="M873.5,119.1a2.6,2.6,0,0,0-4.1,0l-66.5,82.8c-.6.7-1.4,1.4-.9,2.4s1.5,1.1,2.5,1.2H819a4.5,4.5,0,0,0,3.8-1.9c11.4-14.5,41.2-52,47.5-59.9a1.4,1.4,0,0,1,2.3,0c6.3,7.9,36.2,45.4,47.5,59.9a4.5,4.5,0,0,0,3.9,1.9h14.4c1,0,2,0,2.5-1.2s-.3-1.7-.8-2.4Z"/><path class="cls-1" d="M804.3,160.5h14.6a4.7,4.7,0,0,0,4-2l47.4-59.6a1.5,1.5,0,0,1,2.4,0L920,158.5a4.7,4.7,0,0,0,4,2h14.6c.9,0,1.8,0,2.3-1s-.1-1.7-.6-2.3L873.5,74.1a2.6,2.6,0,0,0-4.1,0l-66.7,83.1c-.6.7-1.2,1.3-.6,2.3S803.4,160.5,804.3,160.5Z"/></svg>